<svg width="72" height="78" viewBox="0 0 72 78" fill="none" xmlns="http://www.w3.org/2000/svg">
<path d="M68.2203 23.3114C68.1947 22.4586 67.4886 21.5497 66.4334 21.3578C66.2631 21.3268 66.1575 21.3108 66.0678 21.307C65.7191 21.291 13.646 18.9169 12.3631 18.8587C11.3296 18.8117 10.6799 18.6262 10.1181 19.5356C9.81616 20.024 9.75153 20.6015 9.76263 21.1519C9.79012 22.3443 9.84461 22.9892 9.84461 23.3196C9.84461 27.6051 8.19037 29.03 5.6762 29.5252C3.59995 29.9346 1.42628 29.9355 1.42628 29.9355L6.76135 69.8028C6.76135 69.8028 60.5553 77.9701 61.4234 77.9948C61.9814 78.0108 63.1278 78.0007 63.6704 77.7996C65.0574 77.2865 66.0037 76.4066 66.5356 75.5631C67.4481 74.1149 68.0322 72.7215 68.3423 71.1817C68.7026 69.3919 68.8974 67.5014 68.8694 65.6811C68.8694 65.6811 68.2198 23.3118 68.2198 23.3114H68.2203Z" fill="url(#paint0_linear_5035_3921)"/>
<path d="M68.8704 65.6816C68.8979 67.5014 68.703 69.3919 68.3433 71.1812C68.0331 72.721 67.4486 74.1149 66.5356 75.5631C66.0046 76.4066 65.0579 77.287 63.6704 77.7991C63.1288 78.0002 61.9819 78.0108 61.4234 77.9948C61.3539 77.9924 60.9512 77.9396 60.2673 77.8422C52.3458 76.723 6.76183 69.8028 6.76183 69.8028L1.42725 29.9355C1.42725 29.9355 3.60092 29.9341 5.6762 29.5242C8.18989 29.029 9.84414 27.6046 9.84414 23.3191C9.84414 22.9882 9.7906 22.3443 9.76311 21.1514C9.75154 20.601 9.8152 20.024 10.1176 19.5356C10.6799 18.6262 11.3286 18.8117 12.3631 18.8587C13.646 18.9164 65.7196 21.2905 66.0673 21.3065C66.1054 21.3079 66.1469 21.3118 66.1942 21.3181C66.2583 21.3258 66.3355 21.3389 66.4334 21.3573C67.4886 21.5492 68.1952 22.4581 68.2198 23.3109L68.8699 65.6806L68.8704 65.6816Z" fill="url(#paint1_linear_5035_3921)"/>
<path d="M60.7491 20.8573C62.195 16.834 64.3837 12.3886 68.0143 9.86528C68.7479 9.35558 69.7544 8.71652 70.3911 8.1758C68.7653 8.10071 66.8544 8.13898 65.2262 8.12202C61.298 8.08133 44.8814 7.91029 40.6011 7.86572C37.8221 7.83665 35.0437 7.80806 32.2647 7.77899C29.0204 7.74556 26.172 11.1347 24.5568 13.6144C22.7352 16.4115 21.5743 19.6005 20.7217 22.8152C19.5656 27.1724 17.0838 48.5653 16.7211 50.5363C16.0796 54.0253 14.2981 59.5535 9.8504 59.2696C11.6344 59.3984 45.1833 62.0724 47.7968 62.259C50.8458 62.477 52.815 60.1829 54.0203 57.644C55.497 54.5325 56.8195 40.711 57.2444 37.1339C57.6702 33.5495 60.0961 22.6718 60.7487 20.8568L60.7491 20.8573Z" fill="url(#paint2_linear_5035_3921)"/>
<path d="M60.7491 20.8573C62.195 16.834 64.3837 12.3886 68.0143 9.86528C68.7479 9.35558 69.7544 8.71652 70.3911 8.1758C68.7653 8.10071 66.8544 8.13898 65.2262 8.12202C61.298 8.08133 44.8814 7.91029 40.6011 7.86572C37.8221 7.83665 35.0437 7.80806 32.2647 7.77899C29.0204 7.74556 26.172 11.1347 24.5568 13.6144C22.7352 16.4115 21.5743 19.6005 20.7217 22.8152C19.5656 27.1724 17.0838 48.5653 16.7211 50.5363C16.0796 54.0253 14.2981 59.5535 9.8504 59.2696C11.6344 59.3984 45.1833 62.0724 47.7968 62.259C50.8458 62.477 52.815 60.1829 54.0203 57.644C55.497 54.5325 56.8195 40.711 57.2444 37.1339C57.6702 33.5495 60.0961 22.6718 60.7487 20.8568L60.7491 20.8573Z" fill="url(#paint3_linear_5035_3921)"/>
<path d="M53.3697 63.1786C54.5243 62.1732 55.4589 60.8917 56.1568 59.5482C57.1522 57.6319 57.7541 55.4555 58.152 53.3392C59.0158 48.747 59.2868 44.0531 59.786 39.412C60.0503 36.9536 60.3474 34.4962 60.7434 32.0557C61.258 28.8842 61.9409 25.7164 62.904 22.6505C63.8913 19.508 65.2894 16.0898 67.5933 13.6808C68.6133 12.6144 69.7694 11.8077 71.0855 11.3304C71.9426 11.0199 72.1557 10.0794 71.8968 9.3052C71.6392 8.53483 70.8439 7.9573 70.0279 8.25139C68.5738 8.77708 67.2407 9.71654 66.0307 10.9656C63.2879 13.7966 61.5251 17.6508 60.2534 21.3404C59.1238 24.6171 58.3536 28.0629 57.7966 31.4826C57.3895 33.9826 57.0833 36.5026 56.8122 39.021C56.4312 42.5642 56.1173 46.1166 55.6789 49.6531C55.3437 52.3581 54.8802 55.3136 53.6624 57.7768C53.1758 58.7613 52.2739 59.8553 51.2158 60.6819L53.3692 63.1786H53.3697Z" fill="url(#paint4_linear_5035_3921)"/>
<path d="M55.1175 13.0786C56.5634 9.05521 58.752 4.60985 62.3827 2.08654C63.1162 1.57683 64.1228 0.937768 64.7594 0.397057C63.1336 0.321959 61.2228 0.360235 59.5946 0.343277C55.6668 0.302578 39.2497 0.131547 34.9694 0.0869723C32.1905 0.0579018 29.412 0.0293159 26.6331 0.000245419C23.3887 -0.0331856 20.5403 3.35595 18.9251 5.83566C17.1035 8.63272 15.9427 11.8217 15.09 15.0365C13.9339 19.3936 11.4521 40.7866 11.0894 42.7576C10.448 46.2465 8.66639 51.7747 4.21873 51.4908C6.00271 51.6197 39.5516 54.2937 42.1651 54.4802C45.2142 54.6983 47.1834 52.4041 48.3886 49.8653C49.8654 46.7538 51.1878 32.9322 51.6127 29.3551C52.0385 25.7707 54.4645 14.893 55.117 13.0781L55.1175 13.0786Z" fill="url(#paint5_radial_5035_3921)"/>
<path d="M55.1175 13.0786C56.5634 9.05521 58.752 4.60985 62.3827 2.08654C63.1162 1.57683 64.1228 0.937768 64.7594 0.397057C63.1336 0.321959 61.2228 0.360235 59.5946 0.343277C55.6668 0.302578 39.2497 0.131547 34.9694 0.0869723C32.1905 0.0579018 29.412 0.0293159 26.6331 0.000245419C23.3887 -0.0331856 20.5403 3.35595 18.9251 5.83566C17.1035 8.63272 15.9427 11.8217 15.09 15.0365C13.9339 19.3936 11.4521 40.7866 11.0894 42.7576C10.448 46.2465 8.66639 51.7747 4.21873 51.4908C6.00271 51.6197 39.5516 54.2937 42.1651 54.4802C45.2142 54.6983 47.1834 52.4041 48.3886 49.8653C49.8654 46.7538 51.1878 32.9322 51.6127 29.3551C52.0385 25.7707 54.4645 14.893 55.117 13.0781L55.1175 13.0786Z" fill="url(#paint6_linear_5035_3921)"/>
<path d="M47.7496 55.3892C48.8984 54.3853 49.8297 53.1076 50.5251 51.7689C51.5206 49.8527 52.1225 47.6763 52.5203 45.56C53.3841 40.9678 53.6557 36.2739 54.1543 31.6328C54.4186 29.1744 54.7157 26.717 55.1117 24.2765C55.6263 21.1049 56.3092 17.9372 57.2723 14.8712C58.2596 11.7287 59.6577 8.31052 61.9616 5.90155C62.9817 4.83515 64.1377 4.02844 65.4539 3.5512C66.3109 3.24063 66.5241 2.30021 66.2651 1.52596C66.0075 0.755595 65.2122 0.178061 64.3962 0.472158C62.9421 0.997849 61.6091 1.93731 60.399 3.18637C57.6562 6.01735 55.8935 9.87161 54.6217 13.5611C53.4922 16.8379 52.7219 20.2837 52.1649 23.7033C51.7578 26.2034 51.4516 28.7233 51.1806 31.2418C50.7995 34.785 50.4856 38.3374 50.0472 41.8738C49.712 44.5788 49.2485 47.5343 48.0307 49.9976C47.5576 50.9545 46.6924 52.0151 45.6728 52.8324L47.7496 55.3892Z" fill="url(#paint7_linear_5035_3921)"/>
<path d="M57.0862 43.7542L27.4327 42.2086C26.2641 42.1485 25.2344 41.4925 24.7758 40.5158L21.011 32.4962C20.5524 31.5194 19.5227 30.8634 18.3541 30.8033C18.3541 30.8033 1.40506 29.9336 1.39686 29.9331C0.832098 29.907 0.488226 30.4288 0.294829 30.8353C0.0705648 31.3072 -0.0114242 31.83 0.00207988 32.3416C0.00207988 32.344 0.00207988 32.347 0.00207988 32.3494L0.793997 64.9926C0.839332 66.8371 1.14751 68.701 1.92255 70.4157C2.26498 71.1735 2.70193 71.909 3.28694 72.5364C3.95539 73.253 4.92238 73.8668 5.9892 73.9439C6.5202 73.9826 7.05168 74.0214 7.58268 74.0602C9.02038 74.1653 10.4586 74.2704 11.8963 74.3756C14.0106 74.5301 16.1245 74.6847 18.2388 74.8393C20.7988 75.0263 23.3588 75.2133 25.9188 75.4003C28.6944 75.6033 31.4694 75.8058 34.245 76.0089C37.0051 76.2104 39.7658 76.4125 42.5259 76.614C45.0405 76.7976 47.5557 76.9817 50.0703 77.1654C52.109 77.3141 54.1481 77.4633 56.1867 77.6121C57.5193 77.7095 58.8513 77.8069 60.1839 77.9042C60.5972 77.9343 61.4239 77.9949 61.4239 77.9949L57.0862 43.7542Z" fill="url(#paint8_linear_5035_3921)"/>
<path d="M61.3351 77.9876C61.3351 77.9876 60.5673 77.9309 60.1844 77.9047C58.8518 77.8064 57.5202 77.709 56.1877 77.6116C54.1486 77.4634 52.1099 77.3132 50.0708 77.1649C47.5557 76.9808 45.041 76.7972 42.5259 76.613C39.7662 76.412 37.0056 76.2099 34.2445 76.0089C31.4694 75.8068 28.6944 75.6028 25.9188 75.4003C23.3578 75.2123 20.7988 75.0258 18.2379 74.8393C16.1245 74.6842 14.0097 74.5306 11.8963 74.3756C10.4576 74.2705 9.02039 74.1653 7.58172 74.0602C7.05072 74.0219 6.51972 73.9827 5.98872 73.9434C4.92142 73.8673 3.95492 73.2535 3.28695 72.5364C2.70097 71.9094 2.26401 71.174 1.92159 70.4157C1.14752 68.701 0.838853 66.8366 0.793036 64.9936L0.00160126 32.3499V32.3421C-0.0128674 31.831 0.0696039 31.3082 0.29435 30.8353C0.487748 30.4293 0.830654 29.908 1.39541 29.9341C1.40313 29.9341 14.8474 30.6241 17.7889 30.7752C18.1496 30.7936 18.3527 30.8043 18.3527 30.8043C19.5217 30.8649 20.5509 31.5204 21.0101 32.4967L24.7753 40.5162C25.233 41.4925 26.2636 42.1495 27.4312 42.2086L27.506 42.2125L57.1209 43.7566L61.3342 77.9881L61.3351 77.9876Z" fill="url(#paint9_linear_5035_3921)"/>
<path d="M68.8704 65.6816C68.8979 67.5014 68.703 69.3919 68.3433 71.1812C68.0331 72.721 67.4486 74.1149 66.5356 75.5631C66.0046 76.4067 65.0579 77.287 63.6704 77.7991C63.1288 78.0002 61.9819 78.0109 61.4234 77.9949C61.3539 77.9924 61.0236 78.0167 60.3768 77.772C60.0301 77.6412 59.6539 77.3563 59.2497 76.9803C58.0556 75.8674 57.4474 74.3577 57.0539 72.8746C56.7061 71.5674 56.5204 70.172 56.5204 68.8265L55.9557 46.2301C55.9441 45.5348 55.9542 43.6719 57.1223 43.7562C58.3218 43.8429 60.5606 44.3618 62.7772 42.6747C65.0396 40.9509 65.2282 32.4279 65.2045 30.7752L65.0946 23.8003C65.084 23.0972 65.219 21.3617 66.1947 21.3186C66.2588 21.3264 66.336 21.3394 66.4339 21.3578C67.4891 21.5497 68.1957 22.4587 68.2203 23.3114L68.8704 65.6811V65.6816Z" fill="url(#paint10_linear_5035_3921)"/>
<path d="M68.8704 65.6816C68.8979 67.5014 68.703 69.3919 68.3433 71.1812C68.0331 72.721 67.4486 74.1149 66.5356 75.5631C66.0046 76.4067 65.0579 77.287 63.6704 77.7991C63.1288 78.0002 61.9819 78.0109 61.4234 77.9949C61.3539 77.9924 61.0236 78.0167 60.3768 77.772C60.0301 77.6412 59.6539 77.3563 59.2497 76.9803C58.0556 75.8674 57.4474 74.3577 57.0539 72.8746C56.7061 71.5674 56.5204 70.172 56.5204 68.8265L55.9557 46.2301C55.9441 45.5348 55.9542 43.6719 57.1223 43.7562C58.3218 43.8429 60.5606 44.3618 62.7772 42.6747C65.0396 40.9509 65.2282 32.4279 65.2045 30.7752L65.0946 23.8003C65.084 23.0972 65.219 21.3617 66.1947 21.3186C66.2588 21.3264 66.336 21.3394 66.4339 21.3578C67.4891 21.5497 68.1957 22.4587 68.2203 23.3114L68.8704 65.6811V65.6816Z" fill="url(#paint11_radial_5035_3921)"/>
<path d="M26.0268 42.1597C24.7271 42.102 22.8789 41.5749 22.2693 40.2808L17.7898 30.7752C18.1506 30.7936 18.3536 30.8043 18.3536 30.8043C19.5227 30.8648 20.5519 31.5204 21.011 32.4967L24.7762 40.5162C25.2339 41.4925 26.2646 42.1495 27.4322 42.2086C27.4322 42.2086 26.84 42.1955 26.0263 42.1602L26.0268 42.1597Z" fill="url(#paint12_linear_5035_3921)"/>
<path opacity="0.5" d="M28.8178 9.9157C28.812 9.9094 28.8063 9.90358 28.8005 9.89729C27.37 8.3958 23.7678 8.77953 22.6773 10.7844C22.3957 11.3024 22.3016 11.8673 22.2876 12.4206C22.2843 12.549 22.3431 12.8087 22.2467 12.9216C22.1685 13.0117 22.006 12.9739 21.9095 13.003C21.3718 13.1643 21.3264 13.861 21.365 14.2903C21.4113 14.7855 21.5594 15.2971 21.83 15.677C21.9327 15.8214 22.1738 16.0636 22.3928 15.8863C22.4314 15.8553 22.5003 15.7283 22.563 15.7748C22.66 15.847 22.6769 16.0234 22.7193 16.1368C22.8558 16.4982 23.0574 16.8291 23.3332 17.0879C23.4365 17.1838 23.4196 17.3645 23.2971 17.4716C22.9561 17.7671 22.4724 18.1213 21.8464 18.4169C21.2199 18.71 20.6575 18.85 20.2355 18.9203C20.1082 18.9416 19.9982 19.0477 19.9751 19.1727C19.8241 19.9978 19.5936 21.1325 19.3963 22.2954C19.2709 23.0386 19.8314 23.5144 20.4612 23.5338C23.04 23.6122 25.6058 23.6903 28.1831 23.7687C28.813 23.7881 29.4964 23.3496 29.5712 22.605C29.6869 21.4397 29.7621 20.3002 29.8335 19.4726C29.8441 19.3471 29.7636 19.2352 29.643 19.2061C29.2437 19.1112 28.7233 18.9377 28.1802 18.6092C27.6386 18.2783 27.2538 17.8975 26.9948 17.5835C26.9017 17.4701 26.9335 17.2899 27.0618 17.2008C27.4351 16.9411 27.7592 16.5854 27.9854 16.209C28.0375 16.1222 28.0905 15.9594 28.2082 15.9323C28.3394 15.9023 28.4137 16.1591 28.5849 16.1193C28.8714 16.0525 29.0734 15.77 29.2283 15.5525C29.4424 15.2511 29.617 14.9308 29.7443 14.5951C29.9044 14.1721 30.0833 13.3441 29.5234 13.2104C29.4371 13.1895 29.3242 13.2312 29.2548 13.1575C29.1564 13.0524 29.2649 12.8625 29.3025 12.7423C29.6179 11.7316 29.5147 10.6788 28.8188 9.9157H28.8178Z" fill="#9EC9D8"/>
<path d="M28.5429 9.60997C28.5371 9.60367 28.5313 9.59786 28.5256 9.59156C27.0951 8.09007 23.4929 8.4738 22.4024 10.4787C22.1208 10.9966 22.0267 11.5616 22.0127 12.1149C22.0094 12.2433 22.0682 12.503 21.9717 12.6159C21.8936 12.706 21.7311 12.6682 21.6346 12.6973C21.0969 12.8586 21.0515 13.5553 21.0901 13.9846C21.1364 14.4798 21.2845 14.9914 21.5551 15.3713C21.6578 15.5156 21.8989 15.7579 22.1179 15.5806C22.1565 15.5496 22.2254 15.4226 22.2881 15.4691C22.3851 15.5413 22.402 15.7177 22.4444 15.8311C22.5809 16.1925 22.7825 16.5234 23.0583 16.7821C23.1616 16.8781 23.1447 17.0588 23.0222 17.1659C22.6812 17.4614 22.1975 17.8156 21.5715 18.1111C20.945 18.4043 20.3826 18.5443 19.9606 18.6145C19.8333 18.6359 19.7233 18.742 19.7002 18.867C19.5492 19.6921 19.3187 20.8268 19.1214 21.9896C18.996 22.7329 19.5565 23.2087 20.1863 23.228C22.7651 23.3065 25.3309 23.3845 27.9082 23.463C28.5381 23.4824 29.2215 23.0439 29.2963 22.2992C29.412 21.134 29.4872 19.9944 29.5586 19.1669C29.5692 19.0414 29.4887 18.9295 29.3681 18.9004C28.9688 18.8054 28.4484 18.632 27.9053 18.3035C27.3637 17.9726 26.9789 17.5918 26.7199 17.2778C26.6268 17.1644 26.6586 16.9842 26.7869 16.895C27.1602 16.6353 27.4843 16.2797 27.7105 15.9032C27.7626 15.8165 27.8156 15.6537 27.9333 15.6266C28.0645 15.5965 28.1388 15.8533 28.31 15.8136C28.5965 15.7467 28.7985 15.4643 28.9534 15.2467C29.1675 14.9454 29.3421 14.6251 29.4694 14.2893C29.6295 13.8664 29.8084 13.0383 29.2485 12.9046C29.1622 12.8838 29.0493 12.9255 28.9799 12.8518C28.8815 12.7467 28.99 12.5567 29.0276 12.4366C29.343 11.4259 29.2398 10.3731 28.5439 9.60997H28.5429Z" fill="url(#paint13_linear_5035_3921)"/>
<path d="M28.5429 9.60997C28.5371 9.60367 28.5313 9.59786 28.5256 9.59156C27.0951 8.09007 23.4929 8.4738 22.4024 10.4787C22.1208 10.9966 22.0267 11.5616 22.0127 12.1149C22.0094 12.2433 22.0682 12.503 21.9717 12.6159C21.8936 12.706 21.7311 12.6682 21.6346 12.6973C21.0969 12.8586 21.0515 13.5553 21.0901 13.9846C21.1364 14.4798 21.2845 14.9914 21.5551 15.3713C21.6578 15.5156 21.8989 15.7579 22.1179 15.5806C22.1565 15.5496 22.2254 15.4226 22.2881 15.4691C22.3851 15.5413 22.402 15.7177 22.4444 15.8311C22.5809 16.1925 22.7825 16.5234 23.0583 16.7821C23.1616 16.8781 23.1447 17.0588 23.0222 17.1659C22.6812 17.4614 22.1975 17.8156 21.5715 18.1111C20.945 18.4043 20.3826 18.5443 19.9606 18.6145C19.8333 18.6359 19.7233 18.742 19.7002 18.867C19.5492 19.6921 19.3187 20.8268 19.1214 21.9896C18.996 22.7329 19.5565 23.2087 20.1863 23.228C22.7651 23.3065 25.3309 23.3845 27.9082 23.463C28.5381 23.4824 29.2215 23.0439 29.2963 22.2992C29.412 21.134 29.4872 19.9944 29.5586 19.1669C29.5692 19.0414 29.4887 18.9295 29.3681 18.9004C28.9688 18.8054 28.4484 18.632 27.9053 18.3035C27.3637 17.9726 26.9789 17.5918 26.7199 17.2778C26.6268 17.1644 26.6586 16.9842 26.7869 16.895C27.1602 16.6353 27.4843 16.2797 27.7105 15.9032C27.7626 15.8165 27.8156 15.6537 27.9333 15.6266C28.0645 15.5965 28.1388 15.8533 28.31 15.8136C28.5965 15.7467 28.7985 15.4643 28.9534 15.2467C29.1675 14.9454 29.3421 14.6251 29.4694 14.2893C29.6295 13.8664 29.8084 13.0383 29.2485 12.9046C29.1622 12.8838 29.0493 12.9255 28.9799 12.8518C28.8815 12.7467 28.99 12.5567 29.0276 12.4366C29.343 11.4259 29.2398 10.3731 28.5439 9.60997H28.5429Z" fill="url(#paint14_radial_5035_3921)"/>
<path opacity="0.5" d="M45.2677 14.3988L37.8318 14.1726C37.1392 14.1517 36.6497 13.6072 36.738 12.9565C36.8262 12.3058 37.4595 11.7956 38.152 11.8164L45.5879 12.0427C46.2805 12.0635 46.77 12.6081 46.6818 13.2588C46.5935 13.9095 45.9603 14.4197 45.2677 14.3988Z" fill="#729EB1"/>
<path opacity="0.5" d="M48.9529 18.1635L33.157 17.6833C32.4644 17.6625 31.9749 17.1179 32.0631 16.4672C32.1514 15.8165 32.7846 15.3063 33.4772 15.3272L49.2731 15.8073C49.9657 15.8281 50.4552 16.3727 50.3669 17.0234C50.2787 17.6741 49.6454 18.1843 48.9529 18.1635Z" fill="#729EB1"/>
<path opacity="0.5" d="M46.1754 26.4549L32.9602 26.0532C32.4181 26.0367 32.0347 25.6104 32.1037 25.1011C32.1731 24.5919 32.6689 24.1922 33.211 24.2087L46.4262 24.6103C46.9683 24.6268 47.3517 25.0532 47.2827 25.5624C47.2133 26.0716 46.7175 26.4713 46.1754 26.4549Z" fill="#9EC9D8"/>
<path opacity="0.5" d="M45.7727 30.046L32.5575 29.6444C32.0154 29.6279 31.632 29.2015 31.701 28.6923C31.7704 28.1831 32.2662 27.7834 32.8083 27.7999L46.0235 28.2015C46.5656 28.218 46.949 28.6444 46.88 29.1536C46.8106 29.6628 46.3148 30.0625 45.7727 30.046Z" fill="#9EC9D8"/>
<path opacity="0.5" d="M45.4215 33.5568L32.2064 33.1551C31.6643 33.1387 31.2809 32.7123 31.3498 32.2031C31.4193 31.6939 31.9151 31.2941 32.4572 31.3106L45.6723 31.7123C46.2144 31.7287 46.5978 32.1551 46.5289 32.6643C46.4594 33.1735 45.9636 33.5733 45.4215 33.5568Z" fill="#9EC9D8"/>
<path d="M45.0613 14.1697L37.6254 13.9434C36.9328 13.9226 36.4433 13.378 36.5315 12.7273C36.6198 12.0766 37.253 11.5664 37.9456 11.5872L45.3815 11.8135C46.0741 11.8343 46.5636 12.3789 46.4754 13.0296C46.3871 13.6803 45.7539 14.1905 45.0613 14.1697Z" fill="url(#paint15_linear_5035_3921)"/>
<path d="M48.7469 17.9338L32.951 17.4536C32.2585 17.4328 31.769 16.8882 31.8572 16.2375C31.9455 15.5868 32.5787 15.0766 33.2713 15.0975L49.0672 15.5776C49.7597 15.5985 50.2493 16.143 50.161 16.7937C50.0727 17.4444 49.4395 17.9546 48.7469 17.9338Z" fill="url(#paint16_linear_5035_3921)"/>
<path opacity="0.5" d="M48.2598 22.2188L32.4639 21.7387C31.7714 21.7178 31.2818 21.1733 31.3701 20.5226C31.4583 19.8719 32.0916 19.3617 32.7842 19.3825L48.5801 19.8627C49.2726 19.8835 49.7621 20.4281 49.6739 21.0788C49.5856 21.7295 48.9524 22.2397 48.2598 22.2188Z" fill="#729EB1"/>
<path d="M48.0534 21.9896L32.2575 21.5095C31.5649 21.4887 31.0754 20.9441 31.1637 20.2934C31.2519 19.6427 31.8852 19.1325 32.5777 19.1533L48.3736 19.6335C49.0662 19.6543 49.5557 20.1989 49.4675 20.8496C49.3792 21.5003 48.746 22.0105 48.0534 21.9896Z" fill="url(#paint17_linear_5035_3921)"/>
<path d="M45.9265 26.1782L32.7113 25.7765C32.1692 25.7601 31.7858 25.3337 31.8548 24.8245C31.9242 24.3153 32.42 23.9155 32.9621 23.932L46.1773 24.3337C46.7194 24.3501 47.1028 24.7765 47.0338 25.2857C46.9644 25.7949 46.4686 26.1947 45.9265 26.1782Z" fill="url(#paint18_linear_5035_3921)"/>
<path d="M45.5238 29.7694L32.3086 29.3677C31.7665 29.3512 31.3831 28.9249 31.4521 28.4157C31.5215 27.9064 32.0173 27.5067 32.5594 27.5232L45.7746 27.9249C46.3167 27.9413 46.7001 28.3677 46.6311 28.8769C46.5617 29.3861 46.0659 29.7858 45.5238 29.7694Z" fill="url(#paint19_linear_5035_3921)"/>
<path d="M45.1727 33.2801L31.9575 32.8785C31.4154 32.862 31.032 32.4356 31.101 31.9264C31.1704 31.4172 31.6662 31.0175 32.2083 31.0339L45.4235 31.4356C45.9656 31.4521 46.349 31.8784 46.28 32.3877C46.2106 32.8969 45.7148 33.2966 45.1727 33.2801Z" fill="url(#paint20_linear_5035_3921)"/>
<path opacity="0.5" d="M45.2971 37.02L32.082 36.6184C31.5399 36.6019 31.1564 36.1755 31.2254 35.6663C31.2949 35.1571 31.7907 34.7574 32.3327 34.7739L45.5479 35.1755C46.09 35.192 46.4734 35.6184 46.4045 36.1276C46.335 36.6368 45.8392 37.0365 45.2971 37.02Z" fill="#9EC9D8"/>
<path d="M45.0483 36.7434L31.8331 36.3417C31.291 36.3252 30.9076 35.8989 30.9765 35.3897C31.046 34.8804 31.5418 34.4807 32.0839 34.4972L45.299 34.8989C45.8411 34.9153 46.2246 35.3417 46.1556 35.8509C46.0861 36.3601 45.5904 36.7598 45.0483 36.7434Z" fill="url(#paint21_linear_5035_3921)"/>
<defs>
<linearGradient id="paint0_linear_5035_3921" x1="1.42676" y1="77.9998" x2="68.8723" y2="77.9998" gradientUnits="userSpaceOnUse">
<stop stop-color="#5A87F6"/>
<stop offset="0.06" stop-color="#456BF8"/>
<stop offset="0.13" stop-color="#3453FA"/>
<stop offset="0.16" stop-color="#395BF9"/>
<stop offset="0.29" stop-color="#4A75F7"/>
<stop offset="0.42" stop-color="#5788F6"/>
<stop offset="0.56" stop-color="#5E94F5"/>
<stop offset="0.7" stop-color="#6198F5"/>
<stop offset="0.81" stop-color="#5F95F5"/>
<stop offset="0.88" stop-color="#5A8BF6"/>
<stop offset="0.95" stop-color="#517BF8"/>
<stop offset="1" stop-color="#496CFB"/>
</linearGradient>
<linearGradient id="paint1_linear_5035_3921" x1="26.6904" y1="19.3527" x2="26.1226" y2="36.3772" gradientUnits="userSpaceOnUse">
<stop offset="0.02" stop-color="#83BCFA"/>
<stop offset="0.2" stop-color="#83BCFA"/>
</linearGradient>
<linearGradient id="paint2_linear_5035_3921" x1="34.9565" y1="44.0531" x2="57.882" y2="45.867" gradientUnits="userSpaceOnUse">
<stop offset="0.69" stop-color="#729EB1"/>
<stop offset="0.84" stop-color="#91BCCC"/>
<stop offset="1" stop-color="#B7DFED"/>
</linearGradient>
<linearGradient id="paint3_linear_5035_3921" x1="11.3119" y1="4.33585" x2="8.08895" y2="59.8118" gradientUnits="userSpaceOnUse">
<stop offset="0.03" stop-color="#CFEBFE"/>
<stop offset="0.2" stop-color="#B4D8E9"/>
<stop offset="0.37" stop-color="#9EC9D8"/>
<stop offset="0.54" stop-color="#94BECC"/>
<stop offset="0.67" stop-color="#8AB3C1"/>
</linearGradient>
<linearGradient id="paint4_linear_5035_3921" x1="71.8881" y1="-41.4794" x2="24.824" y2="-33.4651" gradientUnits="userSpaceOnUse">
<stop stop-color="#F3F8FB"/>
<stop offset="0.03" stop-color="#E6F3FC"/>
<stop offset="0.09" stop-color="#D8EEFD"/>
<stop offset="0.16" stop-color="#D1EBFD"/>
<stop offset="0.3" stop-color="#CFEBFE"/>
<stop offset="0.45" stop-color="#BBDBEC"/>
<stop offset="0.76" stop-color="#8AB3C1"/>
</linearGradient>
<radialGradient id="paint5_radial_5035_3921" cx="0" cy="0" r="1" gradientUnits="userSpaceOnUse" gradientTransform="translate(-82.4095 15.4949) rotate(4.1389) scale(153.005 137.893)">
<stop offset="0.63" stop-color="#B7DFED"/>
<stop offset="0.63" stop-color="#C0E3EF"/>
<stop offset="0.65" stop-color="#D7ECF4"/>
<stop offset="0.67" stop-color="#E6F2F8"/>
<stop offset="0.7" stop-color="#F0F6FA"/>
<stop offset="0.73" stop-color="#F3F8FB"/>
<stop offset="0.82" stop-color="#F3F8FB"/>
<stop offset="0.82" stop-color="#F3F8FB"/>
<stop offset="0.85" stop-color="#EAF4F8"/>
<stop offset="0.88" stop-color="#D1EAF3"/>
<stop offset="0.92" stop-color="#B7DFED"/>
<stop offset="0.95" stop-color="#B1D9E8"/>
<stop offset="0.99" stop-color="#A0CBD9"/>
<stop offset="1" stop-color="#9EC9D8"/>
</radialGradient>
<linearGradient id="paint6_linear_5035_3921" x1="5.6796" y1="-3.44314" x2="2.45666" y2="52.0333" gradientUnits="userSpaceOnUse">
<stop stop-color="#B7DFED"/>
<stop offset="0.21" stop-color="#F3F8FB"/>
<stop offset="0.82" stop-color="#9EC9D8"/>
<stop offset="0.93" stop-color="#91BBC9"/>
<stop offset="0.99" stop-color="#8AB3C1"/>
</linearGradient>
<linearGradient id="paint7_linear_5035_3921" x1="64.6062" y1="-43.9378" x2="19.678" y2="-35.1364" gradientUnits="userSpaceOnUse">
<stop stop-color="#F3F8FB"/>
<stop offset="0.03" stop-color="#E6F3FC"/>
<stop offset="0.09" stop-color="#D8EEFD"/>
<stop offset="0.16" stop-color="#D1EBFD"/>
<stop offset="0.3" stop-color="#CFEBFE"/>
<stop offset="0.45" stop-color="#BBDBEC"/>
<stop offset="0.76" stop-color="#8AB3C1"/>
</linearGradient>
<linearGradient id="paint8_linear_5035_3921" x1="0.00063302" y1="77.9953" x2="61.4243" y2="77.9953" gradientUnits="userSpaceOnUse">
<stop stop-color="#6198F5"/>
<stop offset="0.05" stop-color="#72AAF7"/>
<stop offset="0.1" stop-color="#7EB7F9"/>
<stop offset="0.14" stop-color="#83BCFA"/>
<stop offset="0.32" stop-color="#6EA5F6"/>
<stop offset="0.47" stop-color="#6198F5"/>
<stop offset="0.63" stop-color="#5D90F5"/>
<stop offset="0.75" stop-color="#5A87F6"/>
</linearGradient>
<linearGradient id="paint9_linear_5035_3921" x1="-0.00809286" y1="25.5517" x2="-2.29615" y2="76.8737" gradientUnits="userSpaceOnUse">
<stop offset="0.11" stop-color="#83BCFA"/>
<stop offset="0.13" stop-color="#74ACF7"/>
<stop offset="0.16" stop-color="#69A0F6"/>
<stop offset="0.2" stop-color="#6299F5"/>
<stop offset="0.32" stop-color="#6198F5"/>
<stop offset="0.42" stop-color="#5C8FF6"/>
<stop offset="0.82" stop-color="#4C6FFA"/>
<stop offset="0.92" stop-color="#496CFB"/>
<stop offset="1" stop-color="#496CFB"/>
</linearGradient>
<linearGradient id="paint10_linear_5035_3921" x1="53.6448" y1="84.9444" x2="69.6675" y2="84.9336" gradientUnits="userSpaceOnUse">
<stop offset="0.15" stop-color="#5A87F6"/>
<stop offset="0.54" stop-color="#496CFB"/>
<stop offset="0.66" stop-color="#4B70FA"/>
<stop offset="0.8" stop-color="#537EF8"/>
<stop offset="0.94" stop-color="#5F96F5"/>
<stop offset="0.95" stop-color="#6198F5"/>
</linearGradient>
<radialGradient id="paint11_radial_5035_3921" cx="0" cy="0" r="1" gradientUnits="userSpaceOnUse" gradientTransform="translate(58.8349 21.8118) scale(55.956 245.503)">
<stop offset="0.02" stop-color="#6198F5"/>
<stop offset="0.4" stop-color="#6198F5"/>
<stop offset="0.65" stop-color="#6198F5"/>
<stop offset="0.87" stop-color="#4C6FFA"/>
<stop offset="0.99" stop-color="#4C6FFA"/>
<stop offset="1" stop-color="#4C6FFA"/>
</radialGradient>
<linearGradient id="paint12_linear_5035_3921" x1="23.9696" y1="32.8165" x2="19.3797" y2="34.3648" gradientUnits="userSpaceOnUse">
<stop offset="0.31" stop-color="#496CFB"/>
<stop offset="0.87" stop-color="#496CFB"/>
</linearGradient>
<linearGradient id="paint13_linear_5035_3921" x1="18.9044" y1="14.8424" x2="29.3277" y2="25.5088" gradientUnits="userSpaceOnUse">
<stop offset="0.01" stop-color="#3EC7CF"/>
<stop offset="0.51" stop-color="#27A0A9"/>
<stop offset="0.7" stop-color="#2298A2"/>
<stop offset="0.99" stop-color="#15848E"/>
<stop offset="1" stop-color="#15838E"/>
</linearGradient>
<radialGradient id="paint14_radial_5035_3921" cx="0" cy="0" r="1" gradientUnits="userSpaceOnUse" gradientTransform="translate(24.1261 11.1425) scale(11.2117 15.7505)">
<stop stop-color="#64D0D6"/>
<stop offset="1" stop-color="#64D0D6"/>
</radialGradient>
<linearGradient id="paint15_linear_5035_3921" x1="39.6273" y1="10.7945" x2="39.6166" y2="14.8993" gradientUnits="userSpaceOnUse">
<stop stop-color="#9A6CF0"/>
<stop offset="0.05" stop-color="#AE77F5"/>
<stop offset="0.12" stop-color="#C081FA"/>
<stop offset="0.2" stop-color="#CB87FD"/>
<stop offset="0.28" stop-color="#CF8AFF"/>
<stop offset="0.37" stop-color="#BF7FF1"/>
<stop offset="0.57" stop-color="#9764CF"/>
<stop offset="0.76" stop-color="#6945A8"/>
<stop offset="0.82" stop-color="#6B47AC"/>
<stop offset="0.87" stop-color="#744DB8"/>
<stop offset="0.93" stop-color="#8259CD"/>
<stop offset="0.99" stop-color="#9568E9"/>
<stop offset="1" stop-color="#9A6CF0"/>
</linearGradient>
<linearGradient id="paint16_linear_5035_3921" x1="29.1949" y1="15.6668" x2="29.1949" y2="20.1669" gradientUnits="userSpaceOnUse">
<stop stop-color="#9A6CF0"/>
<stop offset="0.05" stop-color="#AE77F5"/>
<stop offset="0.12" stop-color="#C081FA"/>
<stop offset="0.2" stop-color="#CB87FD"/>
<stop offset="0.28" stop-color="#CF8AFF"/>
<stop offset="0.37" stop-color="#BF7FF1"/>
<stop offset="0.57" stop-color="#9764CF"/>
<stop offset="0.76" stop-color="#6945A8"/>
<stop offset="0.82" stop-color="#6B47AC"/>
<stop offset="0.87" stop-color="#744DB8"/>
<stop offset="0.93" stop-color="#8259CD"/>
<stop offset="0.99" stop-color="#9568E9"/>
<stop offset="1" stop-color="#9A6CF0"/>
</linearGradient>
<linearGradient id="paint17_linear_5035_3921" x1="29.5291" y1="20.0119" x2="29.5291" y2="24.512" gradientUnits="userSpaceOnUse">
<stop stop-color="#9A6CF0"/>
<stop offset="0.05" stop-color="#AE77F5"/>
<stop offset="0.12" stop-color="#C081FA"/>
<stop offset="0.2" stop-color="#CB87FD"/>
<stop offset="0.28" stop-color="#CF8AFF"/>
<stop offset="0.37" stop-color="#BF7FF1"/>
<stop offset="0.57" stop-color="#9764CF"/>
<stop offset="0.76" stop-color="#6945A8"/>
<stop offset="0.82" stop-color="#6B47AC"/>
<stop offset="0.87" stop-color="#744DB8"/>
<stop offset="0.93" stop-color="#8259CD"/>
<stop offset="0.99" stop-color="#9568E9"/>
<stop offset="1" stop-color="#9A6CF0"/>
</linearGradient>
<linearGradient id="paint18_linear_5035_3921" x1="32.4202" y1="23.9599" x2="32.4185" y2="26.0501" gradientUnits="userSpaceOnUse">
<stop stop-color="#9EC9D8"/>
<stop offset="0.08" stop-color="#AAD3E2"/>
<stop offset="0.19" stop-color="#B3DCEA"/>
<stop offset="0.33" stop-color="#B7DFED"/>
<stop offset="0.49" stop-color="#ABD4E3"/>
<stop offset="0.78" stop-color="#8DB7C8"/>
<stop offset="1" stop-color="#729EB1"/>
</linearGradient>
<linearGradient id="paint19_linear_5035_3921" x1="32.2638" y1="27.5795" x2="32.2626" y2="29.5932" gradientUnits="userSpaceOnUse">
<stop stop-color="#9EC9D8"/>
<stop offset="0.08" stop-color="#AAD3E2"/>
<stop offset="0.19" stop-color="#B3DCEA"/>
<stop offset="0.33" stop-color="#B7DFED"/>
<stop offset="0.49" stop-color="#ABD4E3"/>
<stop offset="0.78" stop-color="#8DB7C8"/>
<stop offset="1" stop-color="#729EB1"/>
</linearGradient>
<linearGradient id="paint20_linear_5035_3921" x1="31.1066" y1="31.0531" x2="31.1048" y2="33.308" gradientUnits="userSpaceOnUse">
<stop stop-color="#9EC9D8"/>
<stop offset="0.08" stop-color="#AAD3E2"/>
<stop offset="0.19" stop-color="#B3DCEA"/>
<stop offset="0.33" stop-color="#B7DFED"/>
<stop offset="0.49" stop-color="#ABD4E3"/>
<stop offset="0.78" stop-color="#8DB7C8"/>
<stop offset="1" stop-color="#729EB1"/>
</linearGradient>
<linearGradient id="paint21_linear_5035_3921" x1="30.9821" y1="34.5163" x2="30.9804" y2="36.7713" gradientUnits="userSpaceOnUse">
<stop stop-color="#9EC9D8"/>
<stop offset="0.08" stop-color="#AAD3E2"/>
<stop offset="0.19" stop-color="#B3DCEA"/>
<stop offset="0.33" stop-color="#B7DFED"/>
<stop offset="0.49" stop-color="#ABD4E3"/>
<stop offset="0.78" stop-color="#8DB7C8"/>
<stop offset="1" stop-color="#729EB1"/>
</linearGradient>
</defs>
</svg>
