<svg xmlns="http://www.w3.org/2000/svg" xmlns:xlink="http://www.w3.org/1999/xlink" width="500" zoomAndPan="magnify" viewBox="0 0 375 98.249997" height="131" preserveAspectRatio="xMidYMid meet" version="1.0"><defs><g/><clipPath id="9b366b29d3"><path d="M 6.152344 1.324219 L 90.261719 1.324219 L 90.261719 95.851562 L 6.152344 95.851562 Z M 6.152344 1.324219 " clip-rule="nonzero"/></clipPath><clipPath id="4c501f00e3"><path d="M 30 30.398438 L 66.441406 30.398438 L 66.441406 66.871094 L 30 66.871094 Z M 30 30.398438 " clip-rule="nonzero"/></clipPath></defs><g clip-path="url(#9b366b29d3)"><path fill="#ffffff" d="M 85.425781 76.015625 L 69.398438 85.269531 L 53.375 94.519531 C 50.585938 96.132812 46.050781 96.132812 43.257812 94.519531 L 27.234375 85.269531 L 11.210938 76.015625 C 8.417969 74.402344 6.148438 70.476562 6.148438 67.253906 L 6.148438 30.246094 C 6.148438 27.023438 8.417969 23.097656 11.210938 21.484375 L 27.234375 12.230469 L 43.257812 2.980469 C 46.050781 1.367188 50.585938 1.367188 53.375 2.980469 L 69.398438 12.230469 L 85.425781 21.484375 C 88.214844 23.097656 90.484375 27.023438 90.484375 30.246094 L 90.484375 67.253906 C 90.484375 70.476562 88.214844 74.402344 85.425781 76.015625 Z M 85.425781 76.015625 " fill-opacity="1" fill-rule="nonzero"/></g><g clip-path="url(#4c501f00e3)"><path fill="#18181b" d="M 66.015625 41.121094 L 63.617188 33.921875 C 62.914062 31.816406 60.953125 30.402344 58.730469 30.402344 L 37.910156 30.402344 C 35.691406 30.402344 33.726562 31.816406 33.023438 33.921875 L 30.625 41.121094 C 29.980469 43.0625 30.546875 45.15625 31.933594 46.472656 L 31.933594 61.769531 C 31.933594 64.609375 34.246094 66.917969 37.085938 66.917969 L 59.558594 66.917969 C 62.398438 66.917969 64.707031 64.609375 64.707031 61.769531 L 64.707031 46.472656 C 66.09375 45.15625 66.660156 43.0625 66.015625 41.121094 Z M 44.109375 64.109375 L 44.109375 58.023438 C 44.109375 56.730469 45.15625 55.679688 46.449219 55.679688 L 50.195312 55.679688 C 51.484375 55.679688 52.535156 56.730469 52.535156 58.023438 L 52.535156 64.109375 Z M 61.898438 61.765625 C 61.898438 63.058594 60.847656 64.109375 59.558594 64.109375 L 55.34375 64.109375 L 55.34375 58.023438 C 55.34375 55.179688 53.035156 52.871094 50.195312 52.871094 L 46.449219 52.871094 C 43.609375 52.871094 41.296875 55.179688 41.296875 58.023438 L 41.296875 64.109375 L 37.085938 64.109375 C 35.792969 64.109375 34.746094 63.058594 34.746094 61.765625 L 34.746094 47.878906 C 37.03125 48.4375 39.714844 48.152344 41.582031 47.023438 C 42.273438 46.605469 43.136719 46.605469 43.828125 47.023438 C 46.328125 48.527344 50.3125 48.527344 52.8125 47.023438 C 53.503906 46.601562 54.367188 46.605469 55.0625 47.023438 C 56.308594 47.773438 57.90625 48.191406 59.558594 48.191406 C 60.367188 48.191406 61.15625 48.082031 61.898438 47.894531 Z M 62.351562 44.757812 C 60.695312 45.613281 58.058594 45.550781 56.511719 44.617188 C 55.71875 44.136719 54.828125 43.898438 53.9375 43.898438 C 53.046875 43.898438 52.15625 44.136719 51.363281 44.617188 C 49.726562 45.601562 46.917969 45.601562 45.28125 44.617188 C 43.691406 43.660156 41.71875 43.660156 40.128906 44.617188 C 38.585938 45.546875 35.949219 45.609375 34.289062 44.753906 C 33.355469 44.273438 32.929688 43.09375 33.289062 42.007812 L 35.6875 34.808594 C 36.007812 33.851562 36.898438 33.207031 37.910156 33.207031 L 58.726562 33.207031 C 59.738281 33.207031 60.628906 33.851562 60.949219 34.808594 L 63.347656 42.007812 C 63.707031 43.09375 63.28125 44.273438 62.347656 44.753906 Z M 62.351562 44.757812 " fill-opacity="1" fill-rule="nonzero"/></g><g fill="#ffffff" fill-opacity="1"><g transform="translate(99.68694, 61.307007)"><g><path d="M 2.46875 0 L 2.46875 -24.953125 L 6.984375 -24.953125 L 6.984375 -14.390625 L 18.546875 -14.390625 L 18.546875 -24.953125 L 23.078125 -24.953125 L 23.078125 0 L 18.546875 0 L 18.546875 -10.59375 L 6.984375 -10.59375 L 6.984375 0 Z M 2.46875 0 "/></g></g></g><g fill="#ffffff" fill-opacity="1"><g transform="translate(125.211307, 61.307007)"><g><path d="M 10.546875 0.359375 C 8.671875 0.359375 7.050781 -0.03125 5.6875 -0.8125 C 4.332031 -1.59375 3.289062 -2.703125 2.5625 -4.140625 C 1.832031 -5.585938 1.46875 -7.289062 1.46875 -9.25 C 1.46875 -11.175781 1.832031 -12.867188 2.5625 -14.328125 C 3.300781 -15.785156 4.332031 -16.921875 5.65625 -17.734375 C 6.976562 -18.546875 8.535156 -18.953125 10.328125 -18.953125 C 11.472656 -18.953125 12.5625 -18.765625 13.59375 -18.390625 C 14.625 -18.023438 15.535156 -17.457031 16.328125 -16.6875 C 17.117188 -15.914062 17.738281 -14.9375 18.1875 -13.75 C 18.644531 -12.5625 18.875 -11.144531 18.875 -9.5 L 18.875 -8.15625 L 3.53125 -8.15625 L 3.53125 -11.125 L 14.640625 -11.125 C 14.640625 -11.96875 14.457031 -12.71875 14.09375 -13.375 C 13.738281 -14.039062 13.242188 -14.566406 12.609375 -14.953125 C 11.972656 -15.335938 11.226562 -15.53125 10.375 -15.53125 C 9.476562 -15.53125 8.6875 -15.3125 8 -14.875 C 7.320312 -14.4375 6.789062 -13.863281 6.40625 -13.15625 C 6.03125 -12.457031 5.84375 -11.691406 5.84375 -10.859375 L 5.84375 -8.265625 C 5.84375 -7.171875 6.039062 -6.234375 6.4375 -5.453125 C 6.832031 -4.679688 7.382812 -4.09375 8.09375 -3.6875 C 8.8125 -3.28125 9.648438 -3.078125 10.609375 -3.078125 C 11.253906 -3.078125 11.835938 -3.164062 12.359375 -3.34375 C 12.878906 -3.53125 13.328125 -3.800781 13.703125 -4.15625 C 14.085938 -4.507812 14.378906 -4.953125 14.578125 -5.484375 L 18.6875 -5.015625 C 18.425781 -3.929688 17.929688 -2.984375 17.203125 -2.171875 C 16.484375 -1.367188 15.554688 -0.742188 14.421875 -0.296875 C 13.296875 0.140625 12.003906 0.359375 10.546875 0.359375 Z M 10.546875 0.359375 "/></g></g></g><g fill="#ffffff" fill-opacity="1"><g transform="translate(145.545515, 61.307007)"><g><path d="M 5.875 -18.71875 L 9.65625 -11.8125 L 13.484375 -18.71875 L 18.15625 -18.71875 L 12.515625 -9.359375 L 18.25 0 L 13.609375 0 L 9.65625 -6.734375 L 5.734375 0 L 1.046875 0 L 6.75 -9.359375 L 1.1875 -18.71875 Z M 5.875 -18.71875 "/></g></g></g><g fill="#ffffff" fill-opacity="1"><g transform="translate(164.844123, 61.307007)"><g><path d="M 7.65625 0.375 C 6.46875 0.375 5.398438 0.160156 4.453125 -0.265625 C 3.503906 -0.691406 2.753906 -1.320312 2.203125 -2.15625 C 1.660156 -2.988281 1.390625 -4.019531 1.390625 -5.25 C 1.390625 -6.300781 1.582031 -7.171875 1.96875 -7.859375 C 2.363281 -8.554688 2.894531 -9.113281 3.5625 -9.53125 C 4.238281 -9.945312 5 -10.257812 5.84375 -10.46875 C 6.695312 -10.6875 7.582031 -10.84375 8.5 -10.9375 C 9.59375 -11.050781 10.476562 -11.15625 11.15625 -11.25 C 11.84375 -11.34375 12.34375 -11.488281 12.65625 -11.6875 C 12.96875 -11.882812 13.125 -12.195312 13.125 -12.625 L 13.125 -12.703125 C 13.125 -13.617188 12.847656 -14.328125 12.296875 -14.828125 C 11.753906 -15.328125 10.972656 -15.578125 9.953125 -15.578125 C 8.867188 -15.578125 8.015625 -15.34375 7.390625 -14.875 C 6.765625 -14.40625 6.335938 -13.847656 6.109375 -13.203125 L 2 -13.796875 C 2.320312 -14.929688 2.859375 -15.878906 3.609375 -16.640625 C 4.359375 -17.410156 5.269531 -17.988281 6.34375 -18.375 C 7.425781 -18.757812 8.625 -18.953125 9.9375 -18.953125 C 10.832031 -18.953125 11.726562 -18.847656 12.625 -18.640625 C 13.519531 -18.429688 14.335938 -18.082031 15.078125 -17.59375 C 15.816406 -17.113281 16.410156 -16.457031 16.859375 -15.625 C 17.304688 -14.800781 17.53125 -13.769531 17.53125 -12.53125 L 17.53125 0 L 13.296875 0 L 13.296875 -2.578125 L 13.140625 -2.578125 C 12.878906 -2.054688 12.503906 -1.566406 12.015625 -1.109375 C 11.535156 -0.660156 10.929688 -0.300781 10.203125 -0.03125 C 9.472656 0.238281 8.625 0.375 7.65625 0.375 Z M 8.796875 -2.859375 C 9.679688 -2.859375 10.445312 -3.035156 11.09375 -3.390625 C 11.75 -3.742188 12.253906 -4.210938 12.609375 -4.796875 C 12.960938 -5.378906 13.140625 -6.019531 13.140625 -6.71875 L 13.140625 -8.921875 C 12.992188 -8.804688 12.753906 -8.695312 12.421875 -8.59375 C 12.097656 -8.5 11.734375 -8.414062 11.328125 -8.34375 C 10.921875 -8.269531 10.519531 -8.203125 10.125 -8.140625 C 9.726562 -8.085938 9.382812 -8.039062 9.09375 -8 C 8.4375 -7.914062 7.847656 -7.769531 7.328125 -7.5625 C 6.804688 -7.363281 6.394531 -7.082031 6.09375 -6.71875 C 5.789062 -6.351562 5.640625 -5.890625 5.640625 -5.328125 C 5.640625 -4.515625 5.9375 -3.898438 6.53125 -3.484375 C 7.125 -3.066406 7.878906 -2.859375 8.796875 -2.859375 Z M 8.796875 -2.859375 "/></g></g></g><g fill="#ffffff" fill-opacity="1"><g transform="translate(184.556969, 61.307007)"><g><path d="M 23.828125 -16.53125 L 19.265625 -16.53125 C 19.128906 -17.28125 18.882812 -17.941406 18.53125 -18.515625 C 18.1875 -19.097656 17.753906 -19.59375 17.234375 -20 C 16.722656 -20.40625 16.132812 -20.710938 15.46875 -20.921875 C 14.800781 -21.128906 14.085938 -21.234375 13.328125 -21.234375 C 11.972656 -21.234375 10.769531 -20.894531 9.71875 -20.21875 C 8.675781 -19.539062 7.859375 -18.550781 7.265625 -17.25 C 6.671875 -15.945312 6.375 -14.359375 6.375 -12.484375 C 6.375 -10.566406 6.671875 -8.957031 7.265625 -7.65625 C 7.859375 -6.351562 8.675781 -5.367188 9.71875 -4.703125 C 10.769531 -4.046875 11.96875 -3.71875 13.3125 -3.71875 C 14.0625 -3.71875 14.765625 -3.816406 15.421875 -4.015625 C 16.078125 -4.210938 16.664062 -4.503906 17.1875 -4.890625 C 17.707031 -5.285156 18.148438 -5.765625 18.515625 -6.328125 C 18.878906 -6.898438 19.128906 -7.550781 19.265625 -8.28125 L 23.828125 -8.265625 C 23.648438 -7.078125 23.28125 -5.960938 22.71875 -4.921875 C 22.15625 -3.878906 21.414062 -2.960938 20.5 -2.171875 C 19.59375 -1.378906 18.53125 -0.757812 17.3125 -0.3125 C 16.09375 0.125 14.738281 0.34375 13.25 0.34375 C 11.0625 0.34375 9.101562 -0.160156 7.375 -1.171875 C 5.65625 -2.191406 4.300781 -3.660156 3.3125 -5.578125 C 2.320312 -7.492188 1.828125 -9.796875 1.828125 -12.484375 C 1.828125 -15.171875 2.328125 -17.46875 3.328125 -19.375 C 4.328125 -21.289062 5.6875 -22.753906 7.40625 -23.765625 C 9.125 -24.785156 11.070312 -25.296875 13.25 -25.296875 C 14.644531 -25.296875 15.9375 -25.097656 17.125 -24.703125 C 18.320312 -24.316406 19.382812 -23.75 20.3125 -23 C 21.25 -22.25 22.019531 -21.332031 22.625 -20.25 C 23.238281 -19.164062 23.640625 -17.925781 23.828125 -16.53125 Z M 23.828125 -16.53125 "/></g></g></g><g fill="#ffffff" fill-opacity="1"><g transform="translate(210.069149, 61.307007)"><g><path d="M 10.4375 0.359375 C 8.601562 0.359375 7.015625 -0.0390625 5.671875 -0.84375 C 4.335938 -1.644531 3.300781 -2.769531 2.5625 -4.21875 C 1.832031 -5.664062 1.46875 -7.351562 1.46875 -9.28125 C 1.46875 -11.21875 1.832031 -12.910156 2.5625 -14.359375 C 3.300781 -15.816406 4.335938 -16.945312 5.671875 -17.75 C 7.015625 -18.550781 8.601562 -18.953125 10.4375 -18.953125 C 12.257812 -18.953125 13.835938 -18.550781 15.171875 -17.75 C 16.515625 -16.945312 17.550781 -15.816406 18.28125 -14.359375 C 19.019531 -12.910156 19.390625 -11.21875 19.390625 -9.28125 C 19.390625 -7.351562 19.019531 -5.664062 18.28125 -4.21875 C 17.550781 -2.769531 16.515625 -1.644531 15.171875 -0.84375 C 13.835938 -0.0390625 12.257812 0.359375 10.4375 0.359375 Z M 10.453125 -3.171875 C 11.441406 -3.171875 12.269531 -3.441406 12.9375 -3.984375 C 13.601562 -4.535156 14.097656 -5.273438 14.421875 -6.203125 C 14.753906 -7.128906 14.921875 -8.160156 14.921875 -9.296875 C 14.921875 -10.441406 14.753906 -11.476562 14.421875 -12.40625 C 14.097656 -13.34375 13.601562 -14.085938 12.9375 -14.640625 C 12.269531 -15.191406 11.441406 -15.46875 10.453125 -15.46875 C 9.441406 -15.46875 8.597656 -15.191406 7.921875 -14.640625 C 7.253906 -14.085938 6.753906 -13.34375 6.421875 -12.40625 C 6.097656 -11.476562 5.9375 -10.441406 5.9375 -9.296875 C 5.9375 -8.160156 6.097656 -7.128906 6.421875 -6.203125 C 6.753906 -5.273438 7.253906 -4.535156 7.921875 -3.984375 C 8.597656 -3.441406 9.441406 -3.171875 10.453125 -3.171875 Z M 10.453125 -3.171875 "/></g></g></g><g fill="#ffffff" fill-opacity="1"><g transform="translate(230.927241, 61.307007)"><g><path d="M 2.265625 0 L 2.265625 -18.71875 L 6.484375 -18.71875 L 6.484375 -15.53125 L 6.703125 -15.53125 C 7.085938 -16.601562 7.726562 -17.441406 8.625 -18.046875 C 9.53125 -18.648438 10.613281 -18.953125 11.875 -18.953125 C 13.132812 -18.953125 14.203125 -18.644531 15.078125 -18.03125 C 15.953125 -17.425781 16.566406 -16.59375 16.921875 -15.53125 L 17.125 -15.53125 C 17.53125 -16.570312 18.226562 -17.398438 19.21875 -18.015625 C 20.207031 -18.640625 21.378906 -18.953125 22.734375 -18.953125 C 24.453125 -18.953125 25.851562 -18.40625 26.9375 -17.3125 C 28.03125 -16.226562 28.578125 -14.644531 28.578125 -12.5625 L 28.578125 0 L 24.15625 0 L 24.15625 -11.875 C 24.15625 -13.039062 23.847656 -13.894531 23.234375 -14.4375 C 22.617188 -14.976562 21.863281 -15.25 20.96875 -15.25 C 19.90625 -15.25 19.070312 -14.914062 18.46875 -14.25 C 17.875 -13.582031 17.578125 -12.722656 17.578125 -11.671875 L 17.578125 0 L 13.25 0 L 13.25 -12.0625 C 13.25 -13.03125 12.957031 -13.800781 12.375 -14.375 C 11.800781 -14.957031 11.046875 -15.25 10.109375 -15.25 C 9.472656 -15.25 8.894531 -15.085938 8.375 -14.765625 C 7.863281 -14.441406 7.453125 -13.988281 7.140625 -13.40625 C 6.828125 -12.820312 6.671875 -12.144531 6.671875 -11.375 L 6.671875 0 Z M 2.265625 0 "/></g></g></g><g fill="#ffffff" fill-opacity="1"><g transform="translate(261.727049, 61.307007)"><g><path d="M 2.265625 0 L 2.265625 -18.71875 L 6.484375 -18.71875 L 6.484375 -15.53125 L 6.703125 -15.53125 C 7.085938 -16.601562 7.726562 -17.441406 8.625 -18.046875 C 9.53125 -18.648438 10.613281 -18.953125 11.875 -18.953125 C 13.132812 -18.953125 14.203125 -18.644531 15.078125 -18.03125 C 15.953125 -17.425781 16.566406 -16.59375 16.921875 -15.53125 L 17.125 -15.53125 C 17.53125 -16.570312 18.226562 -17.398438 19.21875 -18.015625 C 20.207031 -18.640625 21.378906 -18.953125 22.734375 -18.953125 C 24.453125 -18.953125 25.851562 -18.40625 26.9375 -17.3125 C 28.03125 -16.226562 28.578125 -14.644531 28.578125 -12.5625 L 28.578125 0 L 24.15625 0 L 24.15625 -11.875 C 24.15625 -13.039062 23.847656 -13.894531 23.234375 -14.4375 C 22.617188 -14.976562 21.863281 -15.25 20.96875 -15.25 C 19.90625 -15.25 19.070312 -14.914062 18.46875 -14.25 C 17.875 -13.582031 17.578125 -12.722656 17.578125 -11.671875 L 17.578125 0 L 13.25 0 L 13.25 -12.0625 C 13.25 -13.03125 12.957031 -13.800781 12.375 -14.375 C 11.800781 -14.957031 11.046875 -15.25 10.109375 -15.25 C 9.472656 -15.25 8.894531 -15.085938 8.375 -14.765625 C 7.863281 -14.441406 7.453125 -13.988281 7.140625 -13.40625 C 6.828125 -12.820312 6.671875 -12.144531 6.671875 -11.375 L 6.671875 0 Z M 2.265625 0 "/></g></g></g><g fill="#ffffff" fill-opacity="1"><g transform="translate(292.526846, 61.307007)"><g><path d="M 10.546875 0.359375 C 8.671875 0.359375 7.050781 -0.03125 5.6875 -0.8125 C 4.332031 -1.59375 3.289062 -2.703125 2.5625 -4.140625 C 1.832031 -5.585938 1.46875 -7.289062 1.46875 -9.25 C 1.46875 -11.175781 1.832031 -12.867188 2.5625 -14.328125 C 3.300781 -15.785156 4.332031 -16.921875 5.65625 -17.734375 C 6.976562 -18.546875 8.535156 -18.953125 10.328125 -18.953125 C 11.472656 -18.953125 12.5625 -18.765625 13.59375 -18.390625 C 14.625 -18.023438 15.535156 -17.457031 16.328125 -16.6875 C 17.117188 -15.914062 17.738281 -14.9375 18.1875 -13.75 C 18.644531 -12.5625 18.875 -11.144531 18.875 -9.5 L 18.875 -8.15625 L 3.53125 -8.15625 L 3.53125 -11.125 L 14.640625 -11.125 C 14.640625 -11.96875 14.457031 -12.71875 14.09375 -13.375 C 13.738281 -14.039062 13.242188 -14.566406 12.609375 -14.953125 C 11.972656 -15.335938 11.226562 -15.53125 10.375 -15.53125 C 9.476562 -15.53125 8.6875 -15.3125 8 -14.875 C 7.320312 -14.4375 6.789062 -13.863281 6.40625 -13.15625 C 6.03125 -12.457031 5.84375 -11.691406 5.84375 -10.859375 L 5.84375 -8.265625 C 5.84375 -7.171875 6.039062 -6.234375 6.4375 -5.453125 C 6.832031 -4.679688 7.382812 -4.09375 8.09375 -3.6875 C 8.8125 -3.28125 9.648438 -3.078125 10.609375 -3.078125 C 11.253906 -3.078125 11.835938 -3.164062 12.359375 -3.34375 C 12.878906 -3.53125 13.328125 -3.800781 13.703125 -4.15625 C 14.085938 -4.507812 14.378906 -4.953125 14.578125 -5.484375 L 18.6875 -5.015625 C 18.425781 -3.929688 17.929688 -2.984375 17.203125 -2.171875 C 16.484375 -1.367188 15.554688 -0.742188 14.421875 -0.296875 C 13.296875 0.140625 12.003906 0.359375 10.546875 0.359375 Z M 10.546875 0.359375 "/></g></g></g><g fill="#ffffff" fill-opacity="1"><g transform="translate(312.861055, 61.307007)"><g><path d="M 2.265625 0 L 2.265625 -18.71875 L 6.546875 -18.71875 L 6.546875 -15.59375 L 6.734375 -15.59375 C 7.078125 -16.675781 7.664062 -17.507812 8.5 -18.09375 C 9.332031 -18.6875 10.285156 -18.984375 11.359375 -18.984375 C 11.597656 -18.984375 11.867188 -18.972656 12.171875 -18.953125 C 12.484375 -18.929688 12.738281 -18.898438 12.9375 -18.859375 L 12.9375 -14.796875 C 12.75 -14.867188 12.453125 -14.929688 12.046875 -14.984375 C 11.648438 -15.035156 11.265625 -15.0625 10.890625 -15.0625 C 10.085938 -15.0625 9.367188 -14.890625 8.734375 -14.546875 C 8.097656 -14.203125 7.59375 -13.722656 7.21875 -13.109375 C 6.851562 -12.503906 6.671875 -11.800781 6.671875 -11 L 6.671875 0 Z M 2.265625 0 "/></g></g></g><g fill="#ffffff" fill-opacity="1"><g transform="translate(326.469983, 61.307007)"><g><path d="M 10.4375 0.359375 C 8.5625 0.359375 6.957031 -0.046875 5.625 -0.859375 C 4.289062 -1.679688 3.265625 -2.816406 2.546875 -4.265625 C 1.828125 -5.722656 1.46875 -7.394531 1.46875 -9.28125 C 1.46875 -11.1875 1.832031 -12.867188 2.5625 -14.328125 C 3.289062 -15.785156 4.320312 -16.921875 5.65625 -17.734375 C 7 -18.546875 8.582031 -18.953125 10.40625 -18.953125 C 11.925781 -18.953125 13.269531 -18.675781 14.4375 -18.125 C 15.613281 -17.570312 16.550781 -16.785156 17.25 -15.765625 C 17.945312 -14.753906 18.347656 -13.578125 18.453125 -12.234375 L 14.234375 -12.234375 C 14.054688 -13.140625 13.648438 -13.894531 13.015625 -14.5 C 12.378906 -15.101562 11.53125 -15.40625 10.46875 -15.40625 C 9.5625 -15.40625 8.765625 -15.160156 8.078125 -14.671875 C 7.398438 -14.191406 6.875 -13.5 6.5 -12.59375 C 6.125 -11.695312 5.9375 -10.617188 5.9375 -9.359375 C 5.9375 -8.078125 6.125 -6.976562 6.5 -6.0625 C 6.875 -5.15625 7.398438 -4.457031 8.078125 -3.96875 C 8.753906 -3.476562 9.550781 -3.234375 10.46875 -3.234375 C 11.113281 -3.234375 11.691406 -3.351562 12.203125 -3.59375 C 12.722656 -3.84375 13.15625 -4.203125 13.5 -4.671875 C 13.851562 -5.148438 14.097656 -5.722656 14.234375 -6.390625 L 18.453125 -6.390625 C 18.347656 -5.066406 17.957031 -3.894531 17.28125 -2.875 C 16.601562 -1.863281 15.679688 -1.070312 14.515625 -0.5 C 13.359375 0.0703125 12 0.359375 10.4375 0.359375 Z M 10.4375 0.359375 "/></g></g></g><g fill="#ffffff" fill-opacity="1"><g transform="translate(346.280298, 61.307007)"><g><path d="M 10.546875 0.359375 C 8.671875 0.359375 7.050781 -0.03125 5.6875 -0.8125 C 4.332031 -1.59375 3.289062 -2.703125 2.5625 -4.140625 C 1.832031 -5.585938 1.46875 -7.289062 1.46875 -9.25 C 1.46875 -11.175781 1.832031 -12.867188 2.5625 -14.328125 C 3.300781 -15.785156 4.332031 -16.921875 5.65625 -17.734375 C 6.976562 -18.546875 8.535156 -18.953125 10.328125 -18.953125 C 11.472656 -18.953125 12.5625 -18.765625 13.59375 -18.390625 C 14.625 -18.023438 15.535156 -17.457031 16.328125 -16.6875 C 17.117188 -15.914062 17.738281 -14.9375 18.1875 -13.75 C 18.644531 -12.5625 18.875 -11.144531 18.875 -9.5 L 18.875 -8.15625 L 3.53125 -8.15625 L 3.53125 -11.125 L 14.640625 -11.125 C 14.640625 -11.96875 14.457031 -12.71875 14.09375 -13.375 C 13.738281 -14.039062 13.242188 -14.566406 12.609375 -14.953125 C 11.972656 -15.335938 11.226562 -15.53125 10.375 -15.53125 C 9.476562 -15.53125 8.6875 -15.3125 8 -14.875 C 7.320312 -14.4375 6.789062 -13.863281 6.40625 -13.15625 C 6.03125 -12.457031 5.84375 -11.691406 5.84375 -10.859375 L 5.84375 -8.265625 C 5.84375 -7.171875 6.039062 -6.234375 6.4375 -5.453125 C 6.832031 -4.679688 7.382812 -4.09375 8.09375 -3.6875 C 8.8125 -3.28125 9.648438 -3.078125 10.609375 -3.078125 C 11.253906 -3.078125 11.835938 -3.164062 12.359375 -3.34375 C 12.878906 -3.53125 13.328125 -3.800781 13.703125 -4.15625 C 14.085938 -4.507812 14.378906 -4.953125 14.578125 -5.484375 L 18.6875 -5.015625 C 18.425781 -3.929688 17.929688 -2.984375 17.203125 -2.171875 C 16.484375 -1.367188 15.554688 -0.742188 14.421875 -0.296875 C 13.296875 0.140625 12.003906 0.359375 10.546875 0.359375 Z M 10.546875 0.359375 "/></g></g></g></svg>