<svg width="15" height="15" viewBox="0 0 15 15" fill="none" xmlns="http://www.w3.org/2000/svg">
<path d="M13.3333 0H1.66667C0.75 0 0 0.75 0 1.66667V13.3333C0 14.25 0.75 15 1.66667 15H13.3333C14.25 15 15 14.25 15 13.3333V1.66667C15 0.75 14.25 0 13.3333 0ZM4.16667 11.6667C3.70833 11.6667 3.33333 11.2917 3.33333 10.8333V6.66667C3.33333 6.20833 3.70833 5.83333 4.16667 5.83333C4.625 5.83333 5 6.20833 5 6.66667V10.8333C5 11.2917 4.625 11.6667 4.16667 11.6667ZM7.5 11.6667C7.04167 11.6667 6.66667 11.2917 6.66667 10.8333V4.16667C6.66667 3.70833 7.04167 3.33333 7.5 3.33333C7.95833 3.33333 8.33333 3.70833 8.33333 4.16667V10.8333C8.33333 11.2917 7.95833 11.6667 7.5 11.6667ZM10.8333 11.6667C10.375 11.6667 10 11.2917 10 10.8333V9.16667C10 8.70833 10.375 8.33333 10.8333 8.33333C11.2917 8.33333 11.6667 8.70833 11.6667 9.16667V10.8333C11.6667 11.2917 11.2917 11.6667 10.8333 11.6667Z" fill="#F3EEFE"/>
</svg>
