<svg width="15" height="15" viewBox="0 0 15 15" fill="none" xmlns="http://www.w3.org/2000/svg">
<path d="M8.33086 5.71429C8.7474 5.71429 9.08821 5.39286 9.08821 5V3.57143H10.6029C11.0194 3.57143 11.3603 3.25 11.3603 2.85714C11.3603 2.46429 11.0194 2.14286 10.6029 2.14286H9.08821V0.714286C9.08821 0.321429 8.7474 0 8.33086 0C7.91431 0 7.57351 0.321429 7.57351 0.714286V2.14286H6.0588C5.64226 2.14286 5.30145 2.46429 5.30145 2.85714C5.30145 3.25 5.64226 3.57143 6.0588 3.57143H7.57351V5C7.57351 5.39286 7.91431 5.71429 8.33086 5.71429ZM4.5441 12.1429C3.71102 12.1429 3.03698 12.7857 3.03698 13.5714C3.03698 14.3571 3.71102 15 4.5441 15C5.37719 15 6.0588 14.3571 6.0588 13.5714C6.0588 12.7857 5.37719 12.1429 4.5441 12.1429ZM12.1176 12.1429C11.2845 12.1429 10.6105 12.7857 10.6105 13.5714C10.6105 14.3571 11.2845 15 12.1176 15C12.9507 15 13.6323 14.3571 13.6323 13.5714C13.6323 12.7857 12.9507 12.1429 12.1176 12.1429ZM5.37719 8.57143H11.0194C11.5875 8.57143 12.0873 8.27857 12.3448 7.83571L14.9047 3.45714C15.1091 3.11429 14.9728 2.67857 14.6093 2.48571C14.2458 2.3 13.7838 2.42143 13.5869 2.76429L11.0194 7.14286H5.70285L2.68102 1.12143C2.55984 0.871429 2.2872 0.714286 1.99941 0.714286H0.757351C0.340808 0.714286 0 1.03571 0 1.42857C0 1.82143 0.340808 2.14286 0.757351 2.14286H1.5147L4.24116 7.56429L3.21874 9.30714C2.66587 10.2643 3.39293 11.4286 4.5441 11.4286H12.875C13.2915 11.4286 13.6323 11.1071 13.6323 10.7143C13.6323 10.3214 13.2915 10 12.875 10H4.5441L5.37719 8.57143Z" fill="#F3EEFE"/>
</svg>
