<svg width="15" height="15" viewBox="0 0 15 15" fill="none" xmlns="http://www.w3.org/2000/svg">
<path d="M7.5 0C3.36 0 0 3.36 0 7.5C0 11.64 3.36 15 7.5 15C11.64 15 15 11.64 15 7.5C15 3.36 11.64 0 7.5 0ZM8.5575 12.0675V12.5025C8.5575 13.05 8.1075 13.5 7.56 13.5H7.5525C7.005 13.5 6.555 13.05 6.555 12.5025V12.0525C5.5575 11.8425 4.6725 11.295 4.2975 10.3725C4.125 9.96 4.4475 9.5025 4.8975 9.5025H5.0775C5.355 9.5025 5.58 9.69 5.685 9.9525C5.9025 10.515 6.4725 10.905 7.5675 10.905C9.0375 10.905 9.3675 10.17 9.3675 9.7125C9.3675 9.09 9.0375 8.505 7.365 8.1075C5.505 7.6575 4.23 6.8925 4.23 5.355C4.23 4.065 5.2725 3.225 6.5625 2.9475V2.4975C6.5625 1.95 7.0125 1.5 7.56 1.5H7.5675C8.115 1.5 8.565 1.95 8.565 2.4975V2.9625C9.6 3.2175 10.2525 3.8625 10.5375 4.6575C10.6875 5.07 10.3725 5.505 9.93 5.505H9.735C9.4575 5.505 9.2325 5.31 9.1575 5.04C8.985 4.47 8.5125 4.1025 7.5675 4.1025C6.4425 4.1025 5.7675 4.6125 5.7675 5.3325C5.7675 5.9625 6.255 6.375 7.77 6.765C9.285 7.155 10.905 7.8075 10.905 9.6975C10.89 11.07 9.8625 11.82 8.5575 12.0675V12.0675Z" fill="#F3EEFE"/>
</svg>
